# MagicaVoxel @ Ephtracy

# group
o hhhh

# material
mtllib hhhh.mtl
usemtl palette

# normals
vn -1 0 0
vn 1 0 0
vn 0 0 1
vn 0 0 -1
vn 0 -1 0
vn 0 1 0

# texcoords
vt 0.0175781 0.5
vt 0.0371094 0.5
vt 0.158203 0.5

# verts
v -1.6 1.6 1.6
v -1.6 1.6 -1.5
v -1.6 1.6 -1.6
v -1.6 4.8 1.6
v -1.6 4.8 -1.5
v -1.6 4.8 -1.6
v 1.3 1.9 -0.9
v 1.3 1.9 -1.5
v 1.3 3.4 -0.9
v 1.3 3.4 -1.5
v 1.4 1.8 -1.5
v 1.4 1.8 -1.6
v 1.4 4.6 -1.5
v 1.4 4.6 -1.6
v -1.4 1.8 -1.5
v -1.4 1.8 -1.6
v -1.4 4.6 -1.5
v -1.4 4.6 -1.6
v -1.3 1.9 -0.9
v -1.3 1.9 -1.5
v -1.3 3.4 -0.9
v -1.3 3.4 -1.5
v 1.6 1.6 1.6
v 1.6 1.6 -1.5
v 1.6 1.6 -1.6
v 1.6 4.8 1.6
v 1.6 4.8 -1.5
v 1.6 4.8 -1.6
v -1.6 1.6 1.6
v -1.6 4.8 1.6
v 1.6 1.6 1.6
v 1.6 4.8 1.6
v -1.3 1.9 -0.9
v -1.3 3.4 -0.9
v 1.3 1.9 -0.9
v 1.3 3.4 -0.9
v -1.4 1.8 -1.5
v -1.4 4.6 -1.5
v -1.3 1.9 -1.5
v -1.3 3.4 -1.5
v -1.1 4.2 -1.5
v -1.1 4.3 -1.5
v 1.1 4.2 -1.5
v 1.1 4.3 -1.5
v 1.3 1.9 -1.5
v 1.3 3.4 -1.5
v 1.4 1.8 -1.5
v 1.4 4.6 -1.5
v -1.6 1.6 -1.6
v -1.6 4.8 -1.6
v -1.4 1.8 -1.6
v -1.4 4.6 -1.6
v 1.4 1.8 -1.6
v 1.4 4.6 -1.6
v 1.6 1.6 -1.6
v 1.6 4.8 -1.6
v -1.6 1.6 1.6
v 1.6 1.6 1.6
v -1.6 1.6 -1.5
v 1.6 1.6 -1.5
v -1.6 1.6 -1.6
v 1.6 1.6 -1.6
v -1.3 3.4 -0.9
v 1.3 3.4 -0.9
v -1.3 3.4 -1.5
v 1.3 3.4 -1.5
v -1.4 4.6 -1.5
v 1.4 4.6 -1.5
v -1.4 4.6 -1.6
v 1.4 4.6 -1.6
v -1.4 1.8 -1.5
v 1.4 1.8 -1.5
v -1.4 1.8 -1.6
v 1.4 1.8 -1.6
v -1.3 1.9 -0.9
v 1.3 1.9 -0.9
v -1.3 1.9 -1.5
v 1.3 1.9 -1.5
v -1.6 4.8 1.6
v 1.6 4.8 1.6
v -1.6 4.8 -1.5
v 1.6 4.8 -1.5
v -1.6 4.8 -1.6
v 1.6 4.8 -1.6

# faces
f 4/3/1 2/3/1 1/3/1
f 5/1/1 3/1/1 2/1/1
f 5/3/1 2/3/1 4/3/1
f 6/1/1 3/1/1 5/1/1
f 9/3/1 8/3/1 7/3/1
f 10/3/1 8/3/1 9/3/1
f 13/1/1 12/1/1 11/1/1
f 14/1/1 12/1/1 13/1/1
f 15/1/2 16/1/2 17/1/2
f 17/1/2 16/1/2 18/1/2
f 19/3/2 20/3/2 21/3/2
f 21/3/2 20/3/2 22/3/2
f 23/3/2 24/3/2 26/3/2
f 24/1/2 25/1/2 27/1/2
f 26/3/2 24/3/2 27/3/2
f 27/1/2 25/1/2 28/1/2
f 31/3/3 30/3/3 29/3/3
f 32/3/3 30/3/3 31/3/3
f 33/3/4 34/3/4 35/3/4
f 35/3/4 34/3/4 36/3/4
f 37/3/4 38/3/4 39/3/4
f 39/3/4 38/3/4 40/3/4
f 40/3/4 38/3/4 41/3/4
f 41/3/4 38/3/4 42/3/4
f 40/3/4 41/3/4 43/3/4
f 41/2/4 42/2/4 43/2/4
f 42/3/4 38/3/4 44/3/4
f 43/2/4 42/2/4 44/2/4
f 37/3/4 39/3/4 45/3/4
f 40/3/4 43/3/4 46/3/4
f 43/3/4 44/3/4 46/3/4
f 37/3/4 45/3/4 47/3/4
f 45/3/4 46/3/4 47/3/4
f 44/3/4 38/3/4 48/3/4
f 47/3/4 46/3/4 48/3/4
f 46/3/4 44/3/4 48/3/4
f 49/1/4 50/1/4 51/1/4
f 51/1/4 50/1/4 52/1/4
f 49/1/4 51/1/4 53/1/4
f 52/1/4 50/1/4 54/1/4
f 49/1/4 53/1/4 55/1/4
f 53/1/4 54/1/4 55/1/4
f 54/1/4 50/1/4 56/1/4
f 55/1/4 54/1/4 56/1/4
f 59/3/5 58/3/5 57/3/5
f 60/3/5 58/3/5 59/3/5
f 61/1/5 60/1/5 59/1/5
f 62/1/5 60/1/5 61/1/5
f 65/3/5 64/3/5 63/3/5
f 66/3/5 64/3/5 65/3/5
f 69/1/5 68/1/5 67/1/5
f 70/1/5 68/1/5 69/1/5
f 71/1/6 72/1/6 73/1/6
f 73/1/6 72/1/6 74/1/6
f 75/3/6 76/3/6 77/3/6
f 77/3/6 76/3/6 78/3/6
f 79/3/6 80/3/6 81/3/6
f 81/3/6 80/3/6 82/3/6
f 81/1/6 82/1/6 83/1/6
f 83/1/6 82/1/6 84/1/6
