# MagicaVoxel @ Ephtracy

# group
o hhhh

# material
mtllib hwww.mtl
usemtl palette

# normals
vn -1 0 0
vn 1 0 0
vn 0 0 1
vn 0 0 -1
vn 0 -1 0
vn 0 1 0

# texcoords
vt 0.0175781 0.5
vt 0.0371094 0.5
vt 0.0410156 0.5
vt 0.158203 0.5
vt 0.798828 0.5

# verts
v -1.6 0 1.6
v -1.6 0 -1.5
v -1.6 0 -1.6
v -1.6 3.2 1.6
v -1.6 3.2 -1.5
v -1.6 3.2 -1.6
v -0.6 2.2 -1.5
v -0.6 2.2 -1.6
v -0.6 2.4 -1.5
v -0.6 2.4 -1.6
v 1.3 0.3 -0.9
v 1.3 0.3 -1.5
v 1.3 1.8 -0.9
v 1.3 1.8 -1.5
v 1.4 0.2 -1.5
v 1.4 0.2 -1.6
v 1.4 3 -1.5
v 1.4 3 -1.6
v -1.4 0.2 -1.5
v -1.4 0.2 -1.6
v -1.4 3 -1.5
v -1.4 3 -1.6
v -1.3 0.3 -0.9
v -1.3 0.3 -1.5
v -1.3 1.8 -0.9
v -1.3 1.8 -1.5
v 0.7 2.2 -1.5
v 0.7 2.2 -1.6
v 0.7 2.4 -1.5
v 0.7 2.4 -1.6
v 1.6 0 1.6
v 1.6 0 -1.5
v 1.6 0 -1.6
v 1.6 3.2 1.6
v 1.6 3.2 -1.5
v 1.6 3.2 -1.6
v -1.6 0 1.6
v -1.6 3.2 1.6
v 1.6 0 1.6
v 1.6 3.2 1.6
v -1.3 0.3 -0.9
v -1.3 1.8 -0.9
v -0.7 0.7 -0.9
v -0.7 0.8 -0.9
v -0.7 1 -0.9
v -0.7 1.1 -0.9
v -0.7 1.3 -0.9
v -0.7 1.4 -0.9
v 0.6 0.7 -0.9
v 0.6 0.8 -0.9
v 0.6 1 -0.9
v 0.6 1.1 -0.9
v 0.6 1.3 -0.9
v 0.6 1.4 -0.9
v 1.3 0.3 -0.9
v 1.3 1.8 -0.9
v -1.4 0.2 -1.5
v -1.4 3 -1.5
v -1.3 0.3 -1.5
v -1.3 1.8 -1.5
v -1.1 2.6 -1.5
v -1.1 2.7 -1.5
v -0.6 2.2 -1.5
v -0.6 2.4 -1.5
v 0.7 2.2 -1.5
v 0.7 2.4 -1.5
v 1.1 2.6 -1.5
v 1.1 2.7 -1.5
v 1.3 0.3 -1.5
v 1.3 1.8 -1.5
v 1.4 0.2 -1.5
v 1.4 3 -1.5
v -1.6 0 -1.6
v -1.6 3.2 -1.6
v -1.4 0.2 -1.6
v -1.4 3 -1.6
v -0.6 2.2 -1.6
v -0.6 2.4 -1.6
v 0.7 2.2 -1.6
v 0.7 2.4 -1.6
v 1.4 0.2 -1.6
v 1.4 3 -1.6
v 1.6 0 -1.6
v 1.6 3.2 -1.6
v -1.6 0 1.6
v 1.6 0 1.6
v -1.6 0 -1.5
v 1.6 0 -1.5
v -1.6 0 -1.6
v 1.6 0 -1.6
v -1.3 1.8 -0.9
v 1.3 1.8 -0.9
v -1.3 1.8 -1.5
v 1.3 1.8 -1.5
v -0.6 2.2 -1.5
v 0.7 2.2 -1.5
v -0.6 2.2 -1.6
v 0.7 2.2 -1.6
v -1.4 3 -1.5
v 1.4 3 -1.5
v -1.4 3 -1.6
v 1.4 3 -1.6
v -1.4 0.2 -1.5
v 1.4 0.2 -1.5
v -1.4 0.2 -1.6
v 1.4 0.2 -1.6
v -1.3 0.3 -0.9
v 1.3 0.3 -0.9
v -1.3 0.3 -1.5
v 1.3 0.3 -1.5
v -0.6 2.4 -1.5
v 0.7 2.4 -1.5
v -0.6 2.4 -1.6
v 0.7 2.4 -1.6
v -1.6 3.2 1.6
v 1.6 3.2 1.6
v -1.6 3.2 -1.5
v 1.6 3.2 -1.5
v -1.6 3.2 -1.6
v 1.6 3.2 -1.6

# faces
f 4/4/1 2/4/1 1/4/1
f 5/1/1 3/1/1 2/1/1
f 5/4/1 2/4/1 4/4/1
f 6/1/1 3/1/1 5/1/1
f 9/5/1 8/5/1 7/5/1
f 10/5/1 8/5/1 9/5/1
f 13/4/1 12/4/1 11/4/1
f 14/4/1 12/4/1 13/4/1
f 17/1/1 16/1/1 15/1/1
f 18/1/1 16/1/1 17/1/1
f 19/1/2 20/1/2 21/1/2
f 21/1/2 20/1/2 22/1/2
f 23/4/2 24/4/2 25/4/2
f 25/4/2 24/4/2 26/4/2
f 27/5/2 28/5/2 29/5/2
f 29/5/2 28/5/2 30/5/2
f 31/4/2 32/4/2 34/4/2
f 32/1/2 33/1/2 35/1/2
f 34/4/2 32/4/2 35/4/2
f 35/1/2 33/1/2 36/1/2
f 39/4/3 38/4/3 37/4/3
f 40/4/3 38/4/3 39/4/3
f 41/4/4 42/4/4 43/4/4
f 43/4/4 42/4/4 44/4/4
f 44/4/4 42/4/4 45/4/4
f 45/4/4 42/4/4 46/4/4
f 46/4/4 42/4/4 47/4/4
f 47/4/4 42/4/4 48/4/4
f 41/4/4 43/4/4 49/4/4
f 43/2/4 44/2/4 49/2/4
f 44/4/4 45/4/4 50/4/4
f 49/2/4 44/2/4 50/2/4
f 45/3/4 46/3/4 51/3/4
f 50/4/4 45/4/4 51/4/4
f 46/4/4 47/4/4 52/4/4
f 51/3/4 46/3/4 52/3/4
f 47/2/4 48/2/4 53/2/4
f 52/4/4 47/4/4 53/4/4
f 48/4/4 42/4/4 54/4/4
f 53/2/4 48/2/4 54/2/4
f 52/4/4 53/4/4 55/4/4
f 51/4/4 52/4/4 55/4/4
f 53/4/4 54/4/4 55/4/4
f 50/4/4 51/4/4 55/4/4
f 49/4/4 50/4/4 55/4/4
f 41/4/4 49/4/4 55/4/4
f 54/4/4 42/4/4 56/4/4
f 55/4/4 54/4/4 56/4/4
f 57/4/4 58/4/4 59/4/4
f 59/4/4 58/4/4 60/4/4
f 60/4/4 58/4/4 61/4/4
f 61/4/4 58/4/4 62/4/4
f 60/4/4 61/4/4 63/4/4
f 63/4/4 61/4/4 64/4/4
f 60/4/4 63/4/4 65/4/4
f 64/4/4 61/4/4 66/4/4
f 61/2/4 62/2/4 67/2/4
f 65/4/4 66/4/4 67/4/4
f 66/4/4 61/4/4 67/4/4
f 62/4/4 58/4/4 68/4/4
f 67/2/4 62/2/4 68/2/4
f 57/4/4 59/4/4 69/4/4
f 65/4/4 67/4/4 70/4/4
f 60/4/4 65/4/4 70/4/4
f 67/4/4 68/4/4 70/4/4
f 57/4/4 69/4/4 71/4/4
f 69/4/4 70/4/4 71/4/4
f 68/4/4 58/4/4 72/4/4
f 71/4/4 70/4/4 72/4/4
f 70/4/4 68/4/4 72/4/4
f 73/1/4 74/1/4 75/1/4
f 75/1/4 74/1/4 76/1/4
f 77/5/4 78/5/4 79/5/4
f 79/5/4 78/5/4 80/5/4
f 73/1/4 75/1/4 81/1/4
f 76/1/4 74/1/4 82/1/4
f 73/1/4 81/1/4 83/1/4
f 81/1/4 82/1/4 83/1/4
f 82/1/4 74/1/4 84/1/4
f 83/1/4 82/1/4 84/1/4
f 87/4/5 86/4/5 85/4/5
f 88/4/5 86/4/5 87/4/5
f 89/1/5 88/1/5 87/1/5
f 90/1/5 88/1/5 89/1/5
f 93/4/5 92/4/5 91/4/5
f 94/4/5 92/4/5 93/4/5
f 97/5/5 96/5/5 95/5/5
f 98/5/5 96/5/5 97/5/5
f 101/1/5 100/1/5 99/1/5
f 102/1/5 100/1/5 101/1/5
f 103/1/6 104/1/6 105/1/6
f 105/1/6 104/1/6 106/1/6
f 107/4/6 108/4/6 109/4/6
f 109/4/6 108/4/6 110/4/6
f 111/5/6 112/5/6 113/5/6
f 113/5/6 112/5/6 114/5/6
f 115/4/6 116/4/6 117/4/6
f 117/4/6 116/4/6 118/4/6
f 117/1/6 118/1/6 119/1/6
f 119/1/6 118/1/6 120/1/6
